<?xml version="1.0" standalone="no"?>
<!DOCTYPE svg PUBLIC "-//W3C//DTD SVG 20010904//EN"
 "http://www.w3.org/TR/2001/REC-SVG-20010904/DTD/svg10.dtd">
<svg version="1.0" xmlns="http://www.w3.org/2000/svg"
 width="140.000000pt" height="140.000000pt" viewBox="0 0 140.000000 140.000000"
 preserveAspectRatio="xMidYMid meet">

<g transform="translate(0.000000,140.000000) scale(0.100000,-0.100000)"
fill="#000000" stroke="none">
<path d="M400 1236 c-89 -23 -154 -78 -192 -161 -19 -42 -23 -67 -23 -155 0
-191 52 -350 145 -439 85 -82 248 -173 343 -192 l57 -12 0 -83 c0 -77 2 -84
20 -84 17 0 20 7 20 53 l0 52 28 -50 c37 -68 54 -69 89 -3 l28 53 3 -52 c3
-45 6 -53 23 -53 19 0 20 6 17 98 -4 120 -16 125 -70 32 -21 -36 -41 -65 -45
-65 -7 0 -61 84 -62 98 -1 4 10 7 23 7 62 0 154 53 195 114 65 95 74 186 41
383 -24 142 -29 157 -73 226 -49 77 -110 122 -233 173 -162 66 -251 83 -334
60z m201 -23 l54 -17 -64 -7 c-166 -20 -282 -102 -348 -245 -14 -31 -29 -79
-32 -108 l-7 -51 -8 69 c-20 169 36 294 159 352 62 29 165 32 246 7z m189
-161 c23 -18 23 -19 21 -297 -1 -242 -4 -282 -18 -297 -14 -16 -35 -18 -165
-18 -135 0 -150 2 -168 20 -19 19 -20 33 -20 286 0 261 4 296 34 316 6 4 75 8
152 8 122 0 145 -2 164 -18z m259 -447 c1 -107 -46 -211 -120 -264 -51 -37
-141 -60 -164 -41 -12 10 -18 10 -29 1 -19 -16 -75 -5 -153 30 -35 15 -63 30
-63 32 0 2 34 2 75 -1 180 -11 344 92 408 256 15 40 28 82 28 94 2 39 18 -54
18 -107z"/>
<path d="M490 775 l0 -215 139 0 140 0 0 33 c0 17 -2 114 -5 215 l-6 182 -134
0 -134 0 0 -215z"/>
<path d="M604 526 c-15 -12 -17 -18 -8 -33 16 -27 51 -29 59 -3 6 20 -9 50
-24 50 -4 0 -16 -6 -27 -14z"/>
<path d="M320 305 c0 -8 9 -15 20 -15 11 0 20 7 20 15 0 8 -9 15 -20 15 -11 0
-20 -7 -20 -15z"/>
<path d="M90 211 c0 -94 1 -101 20 -101 17 0 20 7 20 40 l0 40 60 0 60 0 0
-40 c0 -34 3 -40 20 -40 20 0 21 5 18 97 -3 84 -6 98 -20 101 -15 3 -18 -4
-18 -37 l0 -41 -59 0 -60 0 -3 37 c-2 27 -8 39 -20 41 -16 3 -18 -7 -18 -97z"/>
<path d="M1006 301 c-12 -19 -8 -161 4 -176 9 -11 34 -15 92 -15 70 0 79 2 76
18 -3 14 -17 18 -73 22 l-70 5 -3 58 -3 57 76 0 c67 0 76 2 73 18 -3 14 -16
17 -85 20 -45 1 -84 -2 -87 -7z"/>
<path d="M320 185 c0 -68 2 -75 20 -75 18 0 20 7 20 75 0 68 -2 75 -20 75 -18
0 -20 -7 -20 -75z"/>
<path d="M406 244 c-11 -10 -16 -34 -16 -75 0 -52 2 -59 20 -59 18 0 20 7 20
55 l0 55 45 0 c38 0 45 3 45 20 0 17 -7 20 -49 20 -32 0 -55 -6 -65 -16z"/>
<path d="M556 244 c-19 -19 -22 -104 -4 -122 7 -7 31 -12 55 -12 36 0 43 3 43
20 0 16 -7 20 -35 20 -33 0 -35 2 -35 35 0 34 1 35 40 35 40 0 58 -19 20 -21
-41 -3 -45 -4 -48 -21 -3 -15 4 -18 40 -18 24 0 49 5 56 12 19 19 15 66 -7 78
-30 16 -107 12 -125 -6z"/>
<path d="M1049 228 c-10 -35 -7 -38 52 -38 52 0 59 2 59 20 0 18 -7 20 -55 20
-30 0 -55 -1 -56 -2z"/>
</g>
</svg>
